<svg xmlns="http://www.w3.org/2000/svg" viewBox="0 0 24 24" fill="currentColor">
  <path d="M12 2C6.48 2 2 6.48 2 12C2 16.42 4.87 20.17 8.84 21.49C9.34 21.58 9.5 21.27 9.5 21C9.5 20.77 9.5 20.14 9.5 19.31C6.73 19.91 6.14 17.97 6.14 17.97C5.68 16.81 5.03 16.5 5.03 16.5C4.12 15.88 5.1 15.89 5.1 15.89C6.1 15.96 6.63 16.92 6.63 16.92C7.52 18.45 8.97 18.01 9.54 17.76C9.63 17.11 9.89 16.67 10.17 16.42C7.95 16.17 5.62 15.31 5.62 11.5C5.62 10.42 6 9.54 6.65 8.85C6.55 8.6 6.2 7.6 6.75 6.25C6.75 6.25 7.59 5.98 9.5 7.27C10.3 7.05 11.15 6.94 12 6.94C12.85 6.94 13.7 7.05 14.5 7.27C16.41 5.98 17.25 6.25 17.25 6.25C17.8 7.6 17.45 8.6 17.35 8.85C18 9.54 18.38 10.42 18.38 11.5C18.38 15.32 16.04 16.16 13.82 16.41C14.18 16.72 14.5 17.33 14.5 18.26C14.5 19.6 14.49 20.68 14.49 21C14.49 21.27 14.65 21.59 15.16 21.49C19.13 20.17 22 16.42 22 12C22 6.48 17.52 2 12 2Z"/>
</svg>